<?xml version="1.0" standalone="no"?>
<!DOCTYPE svg PUBLIC "-//W3C//DTD SVG 20010904//EN"
 "http://www.w3.org/TR/2001/REC-SVG-20010904/DTD/svg10.dtd">
<svg version="1.0" xmlns="http://www.w3.org/2000/svg"
 width="700.000000pt" height="700.000000pt" viewBox="0 0 700.000000 700.000000"
 preserveAspectRatio="xMidYMid meet">
<metadata>
Created by potrace 1.11, written by Peter Selinger 2001-2013
</metadata>
<g transform="translate(0.000000,700.000000) scale(0.100000,-0.100000)"
fill="#000000" stroke="none">
<path d="M3443 6980 c-16 -10 -794 -783 -1730 -1718 -1228 -1228 -1703 -1709
-1707 -1729 -7 -31 -2 -64 12 -89 12 -21 1828 -1843 1866 -1871 35 -27 91 -30
124 -7 47 32 880 871 894 899 8 17 14 37 13 45 -1 8 -3 25 -3 37 -2 27 -6 30
-404 431 -175 175 -322 332 -328 348 -28 73 -49 48 688 787 395 396 700 694
719 702 71 30 76 27 472 -369 209 -208 375 -367 386 -368 11 -1 29 -2 40 -3
11 -1 31 4 45 11 35 17 910 896 911 914 0 8 2 26 5 39 2 13 -4 38 -14 55 -37
62 -1861 1895 -1889 1898 -61 5 -75 3 -100 -12z"/>
<path d="M5670 4789 c-14 -6 -268 -252 -565 -549 -298 -297 -553 -544 -568
-550 -34 -12 -70 -7 -103 15 -13 9 -112 102 -220 208 -560 551 -518 512 -571
520 -24 4 -43 -2 -70 -20 -40 -27 -951 -929 -984 -974 -17 -25 -24 -57 -20
-103 0 -12 159 -179 370 -390 387 -389 389 -392 370 -460 -6 -23 -154 -177
-544 -566 -294 -294 -542 -550 -550 -567 -36 -75 -50 -58 611 -719 333 -333
616 -609 630 -614 67 -26 90 -13 230 125 56 55 262 258 459 450 289 284 1647
1638 2643 2637 125 126 195 204 200 223 17 59 -2 89 -146 236 -75 78 -186 191
-245 252 -645 664 -793 813 -822 833 -28 18 -75 24 -105 13z"/>
</g>
</svg>
