<svg width="33" height="76" xmlns="http://www.w3.org/2000/svg"><path d="M33 0v76l-1.235.001-.016-.002L9.821 76c-.451 0-.824-.403-.86-.908l-.004-.081.002-10.73a.997.997 0 00-.916-.987l-.077-.004-6.974.001a.994.994 0 01-.989-.912L0 62.302l.001-9.7a.99.99 0 01.915-.986l.077-.003h6.973c.519.001.95-.403.988-.91l.003-.078.001-10.731c0-.516.351-.944.792-.985l.07-.003 12.272-.001 8.815-.001.001-13.594a.994.994 0 00-.91-.984l-.077-.003h-6.935a.99.99 0 01-.983-.909L22 23.337l.001-9.675a.987.987 0 01.91-.984l.076-.002h6.934a.988.988 0 00.983-.91l.002-.076L30.91 0H33z" fill-rule="evenodd"/></svg>