<svg id="logo" viewBox="0 0 238 36" xmlns="http://www.w3.org/2000/svg" xmlns:xlink="http://www.w3.org/1999/xlink" >
  <g transform="translate(1.000000, 0.000000)" fill="#ffffff">
      <path d="M71.5795087,9.79388653 L78.3584206,9.79388653 C81.4607764,9.79388653 83.8434394,10.524719 85.5064811,11.9864059 C87.1695228,13.4480928 88.0010312,15.5511005 88.0010312,18.2954922 C88.0010312,20.9802232 87.1434217,23.068316 85.4281768,24.5598332 C83.712932,26.0513504 81.3190828,26.7970978 78.2465573,26.7970978 L71.5795087,26.7970978 L71.5795087,9.79388653 Z M76.0092927,23.1503565 L78.0899488,23.1503565 C81.6099295,23.1503565 83.3698934,21.5320846 83.3698934,18.2954922 C83.3698934,15.0588998 81.6099295,13.4406279 78.0899488,13.4406279 L76.0092927,13.4406279 L76.0092927,23.1503565 Z"></path>
      <path d="M89.9921967,15.2528123 L93.9074099,15.2528123 L93.9521552,16.975506 C94.2355434,16.3490688 94.6233321,15.8680617 95.1155328,15.5324703 C95.6077335,15.196879 96.181959,15.0290858 96.8382265,15.0290858 C97.3453424,15.0290858 97.7853334,15.111118 98.1582127,15.2751849 L97.8449956,19.0785348 C97.3826253,18.8846376 96.890432,18.7876904 96.368401,18.7876904 C95.592812,18.7876904 95.0074003,19.0449733 94.6121482,19.5595467 C94.2168962,20.0741202 94.0192731,20.8385113 94.0192731,21.852743 L94.0192731,26.7970978 L89.9921967,26.7970978 L89.9921967,15.2528123 Z"></path>
      <path d="M104.042219,27.1550602 C103.042902,27.1550602 102.148005,26.9052348 101.357501,26.4055765 C100.566997,25.9059183 99.9405692,25.1937295 99.4781988,24.2689888 C99.0158285,23.3442481 98.7846468,22.2778293 98.7846468,21.0697003 C98.7846468,19.9361473 99.008371,18.9032871 99.4558262,17.9710888 C99.9032813,17.0388905 100.537167,16.2931431 101.357501,15.7338242 C102.177836,15.1745052 103.11002,14.8948499 104.154082,14.8948499 C104.84018,14.8948499 105.474065,15.0439994 106.055757,15.3423029 C106.637449,15.6406063 107.099812,16.0582249 107.442861,16.5951711 L107.487606,15.2528123 L111.268584,15.2528123 L111.268584,26.7970978 L107.487606,26.7970978 L107.442861,25.4771117 C107.099812,26.0140579 106.63372,26.4279477 106.044571,26.7187936 C105.455421,27.0096394 104.787977,27.1550602 104.042219,27.1550602 Z M105.138478,23.5754367 C105.824576,23.5754367 106.383887,23.3367976 106.816427,22.8595121 C107.248967,22.3822266 107.465234,21.7707137 107.465234,21.0249551 C107.465234,20.2791964 107.248967,19.6676836 106.816427,19.190398 C106.383887,18.7131125 105.824576,18.4744734 105.138478,18.4744734 C104.45238,18.4744734 103.889341,18.7131125 103.449344,19.190398 C103.009346,19.6676836 102.789351,20.2791964 102.789351,21.0249551 C102.789351,21.7707137 103.009346,22.3822266 103.449344,22.8595121 C103.889341,23.3367976 104.45238,23.5754367 105.138478,23.5754367 Z"></path>
      <polygon points="112.700433 15.2528123 116.861745 15.2528123 118.42783 22.3449412 120.553232 15.2528123 123.819638 15.2528123 126.012158 22.3225685 127.578243 15.2528123 131.739555 15.2528123 128.025696 26.7970978 124.446072 26.7970978 122.119317 20.0405586 119.904425 26.7970978 116.414292 26.7970978"></polygon>
      <polygon points="139.681845 18.496846 137.735424 18.496846 137.735424 15.2528123 139.681845 15.2528123 139.681845 12.2772503 143.708921 12.2772503 143.708921 15.2528123 146.080421 15.2528123 146.080421 18.496846 143.708921 18.496846 143.708921 26.7970978 139.681845 26.7970978"></polygon>
      <path d="M147.982096,8.6752542 L152.009173,8.6752542 L152.009173,16.4833078 C152.337307,15.976192 152.784755,15.5846746 153.351532,15.3087439 C153.918308,15.0328132 154.559651,14.8948499 155.275579,14.8948499 C156.603029,14.8948499 157.60606,15.3087397 158.2847,16.1365318 C158.96334,16.9643239 159.302655,18.1761634 159.302655,19.7720869 L159.302655,26.7970978 L155.275579,26.7970978 L155.275579,20.5327568 C155.275579,19.160561 154.761013,18.4744734 153.731867,18.4744734 C153.180005,18.4744734 152.754929,18.6646389 152.456626,19.0449758 C152.158322,19.4253127 152.009173,19.9734371 152.009173,20.6893654 L152.009173,26.7970978 L147.982096,26.7970978 L147.982096,8.6752542 Z"></path>
      <path d="M167.781888,27.1550602 C166.379862,27.1550602 165.156837,26.9126923 164.112774,26.4279492 C163.068712,25.9432061 162.259576,25.2422035 161.685342,24.3249204 C161.111108,23.4076373 160.823995,22.3076599 160.823995,21.0249551 C160.823995,19.8615716 161.070092,18.8175252 161.562293,17.8927845 C162.054493,16.9680439 162.759225,16.2372114 163.676508,15.7002652 C164.593791,15.163319 165.656481,14.8948499 166.86461,14.8948499 C168.59477,14.8948499 169.970674,15.4131444 170.992363,16.4497489 C172.014053,17.4863533 172.52489,18.8920872 172.52489,20.6669927 C172.52489,21.1890237 172.480145,21.6513871 172.390654,22.0540968 L164.783954,22.0540968 C164.992766,22.7252795 165.384284,23.2212016 165.958518,23.5418778 C166.532752,23.862554 167.319515,24.0228897 168.318832,24.0228897 C168.960184,24.0228897 169.608985,23.9557724 170.265252,23.8215359 C170.92152,23.6872993 171.503203,23.5008625 172.010319,23.2622197 L172.368281,26.282527 C171.756759,26.5659152 171.052028,26.782182 170.254066,26.9313337 C169.456104,27.0804854 168.632053,27.1550602 167.781888,27.1550602 Z M168.766285,19.637851 C168.706624,19.0412441 168.501544,18.5714232 168.151037,18.2283742 C167.800531,17.8853253 167.349353,17.7138034 166.797492,17.7138034 C165.663939,17.7138034 164.970394,18.3551462 164.716836,19.637851 L168.766285,19.637851 Z"></path>
      <polygon points="179.303226 9.79388653 183.8225 9.79388653 183.8225 23.1727291 191.048865 23.1727291 191.048865 26.7970978 179.303226 26.7970978"></polygon>
      <path d="M193.28613,15.2528123 L197.313206,15.2528123 L197.313206,26.7970978 L193.28613,26.7970978 L193.28613,15.2528123 Z M195.299668,13.4406279 C194.658316,13.4406279 194.121378,13.2355474 193.688838,12.8253801 C193.256298,12.4152129 193.040031,11.9043759 193.040031,11.2928538 C193.040031,10.6813318 193.256298,10.1667661 193.688838,9.74914123 C194.121378,9.33151641 194.658316,9.12270713 195.299668,9.12270713 C195.94102,9.12270713 196.477959,9.33151641 196.910499,9.74914123 C197.343039,10.1667661 197.559305,10.6813318 197.559305,11.2928538 C197.559305,11.9043759 197.343039,12.4152129 196.910499,12.8253801 C196.477959,13.2355474 195.94102,13.4406279 195.299668,13.4406279 Z"></path>
      <path d="M200.176905,15.2528123 L204.114491,15.2528123 L204.159236,16.6846616 C204.442624,16.1178851 204.875158,15.6778941 205.45685,15.3646755 C206.038541,15.0514569 206.709714,14.8948499 207.470388,14.8948499 C208.797838,14.8948499 209.800868,15.3087397 210.479509,16.1365318 C211.158149,16.9643239 211.497464,18.1761634 211.497464,19.7720869 L211.497464,26.7970978 L207.470388,26.7970978 L207.470388,20.5327568 C207.470388,19.160561 206.955822,18.4744734 205.926675,18.4744734 C205.374814,18.4744734 204.949738,18.6646389 204.651434,19.0449758 C204.353131,19.4253127 204.203981,19.9734371 204.203981,20.6893654 L204.203981,26.7970978 L200.176905,26.7970978 L200.176905,15.2528123 Z"></path>
      <path d="M220.08856,27.1550602 C218.686534,27.1550602 217.463508,26.9126923 216.419446,26.4279492 C215.375384,25.9432061 214.566248,25.2422035 213.992014,24.3249204 C213.41778,23.4076373 213.130667,22.3076599 213.130667,21.0249551 C213.130667,19.8615716 213.376764,18.8175252 213.868965,17.8927845 C214.361165,16.9680439 215.065897,16.2372114 215.98318,15.7002652 C216.900463,15.163319 217.963153,14.8948499 219.171282,14.8948499 C220.901442,14.8948499 222.277346,15.4131444 223.299035,16.4497489 C224.320724,17.4863533 224.831561,18.8920872 224.831561,20.6669927 C224.831561,21.1890237 224.786817,21.6513871 224.697326,22.0540968 L217.090626,22.0540968 C217.299438,22.7252795 217.690956,23.2212016 218.26519,23.5418778 C218.839424,23.862554 219.626187,24.0228897 220.625504,24.0228897 C221.266856,24.0228897 221.915657,23.9557724 222.571924,23.8215359 C223.228192,23.6872993 223.809875,23.5008625 224.316991,23.2622197 L224.674953,26.282527 C224.063431,26.5659152 223.3587,26.782182 222.560738,26.9313337 C221.762776,27.0804854 220.938725,27.1550602 220.08856,27.1550602 Z M221.072957,19.637851 C221.013296,19.0412441 220.808216,18.5714232 220.457709,18.2283742 C220.107202,17.8853253 219.656025,17.7138034 219.104164,17.7138034 C217.970611,17.7138034 217.277066,18.3551462 217.023508,19.637851 L221.072957,19.637851 Z"></path>
      <path d="M231.006412,27.1550602 C230.096586,27.1550602 229.220333,27.0506555 228.377626,26.8418431 C227.534919,26.6330307 226.867475,26.3571042 226.375274,26.0140552 L226.822727,23.0832385 C227.374588,23.4412027 228.001016,23.7208579 228.702029,23.9222128 C229.403042,24.1235676 230.08913,24.2242435 230.760313,24.2242435 C231.729799,24.2242435 232.214535,23.9930618 232.214535,23.5306915 C232.214535,23.2920487 232.102673,23.1056118 231.878945,22.9713753 C231.655217,22.8371387 231.200312,22.6805318 230.514214,22.5015497 C229.097272,22.1286704 228.086784,21.6439346 227.48272,21.0473277 C226.878656,20.4507208 226.576628,19.6303986 226.576628,18.5863366 C226.576628,17.4378683 227.016619,16.5355139 227.896614,15.8792464 C228.776609,15.2229788 229.98472,14.8948499 231.520983,14.8948499 C232.296572,14.8948499 233.060963,14.9768821 233.814179,15.140949 C234.567395,15.3050159 235.190094,15.5287402 235.682295,15.8121284 L235.279587,18.6981998 C234.742641,18.4297267 234.160958,18.2171887 233.534521,18.0605794 C232.908084,17.9039701 232.318943,17.8256666 231.767082,17.8256666 C230.946747,17.8256666 230.536586,18.0493908 230.536586,18.496846 C230.536586,18.7354888 230.655906,18.9256544 230.894549,19.0673485 C231.133191,19.2090426 231.588097,19.3619208 232.25928,19.5259877 C233.646391,19.8690367 234.65315,20.3537725 235.279587,20.9802098 C235.906025,21.606647 236.219238,22.4418841 236.219238,23.4859462 C236.219238,24.6493296 235.764333,25.551684 234.854507,26.1930364 C233.944682,26.8343888 232.661996,27.1550602 231.006412,27.1550602 Z"></path>
      <polygon points="14.1784646 0.0403232323 4.73482828 4.68557576 5.71705051 6.68193939 11.9538182 3.61446465 11.9538182 6.3320404 52.6633131 6.3320404 55.5800808 8.20678788 55.8309899 11.2144646 57.991798 13.2645657 55.1000808 17.4544646 55.7077576 22.9211313 59.122303 26.7017374 57.5497778 30.3486061 51.6600808 33.5934545 6.22008081 33.5934545 6.22008081 24.8134766 3.9950303 24.8134766 3.9950303 35.8185051 52.232202 35.8185051 59.2911919 31.9296162 61.7311919 26.2706263 57.8394747 21.9623434 57.4035152 18.0346667 60.9049293 12.9615354 57.9772525 10.1841616 57.7061414 6.92921212 53.3170505 4.1069899 14.1784646 4.1069899"></polygon>
      <polygon stroke="#ffffff" stroke-width="2.02020202" fill="#ffffff00" points="0.26230303 10.5749899 0.764525253 28.2452929 5.25826263 24.5996364 8.10311111 30.195596 11.4966465 28.4699394 8.65139394 22.8743838 14.2445253 21.3911515"></polygon>
  </g>
</svg>