<?xml version="1.0" encoding="UTF-8"?>
<svg width="60px" height="60px" viewBox="0 0 60 60" version="1.1" xmlns="http://www.w3.org/2000/svg" xmlns:xlink="http://www.w3.org/1999/xlink">
    <title>No image</title>
    <g id="Designs:-Phase-1" stroke="none" stroke-width="1" fill="none" fill-rule="evenodd">
        <g id="Homepage" transform="translate(-100.000000, -1354.000000)">
            <g id="No-image" transform="translate(100.000000, 1354.000000)">
                <rect id="Rectangle" fill="#EDE7E0" x="0" y="0" width="60" height="60"></rect>
                <path d="M25.1084401,41.9999428 C25.5963693,41.9999428 25.9545227,41.5414936 25.8359164,41.0680755 L24.6026583,36.1340357 L25.7201483,33.1532231 L31.9999642,34.1999431 L31.9999642,41.2499446 C31.9999642,41.6643113 32.3355958,41.9999428 32.7499624,41.9999428 L35.7499553,41.9999428 C36.164322,41.9999428 36.4999535,41.6643113 36.4999535,41.2499446 L36.4999535,32.9165141 C37.4252748,31.9701358 37.9999499,30.6782382 37.9999499,29.2499732 C37.9999499,29.2396735 37.996654,29.2302894 37.9961963,29.2199897 L37.9961963,24.416687 L38.7461945,24.7499839 L39.6321482,26.5171763 C39.9813295,27.2142114 40.806355,27.527321 41.5300776,27.2376489 L43.0558919,26.627314 C43.5764595,26.4192152 43.9990201,25.7952848 43.9990201,25.2346172 L43.9990201,25.2332439 L43.996182,21.5905981 C43.9957242,21.2095108 43.8546418,20.8467339 43.5939918,20.5687347 C43.4167919,20.3798161 43.1918016,20.1412302 42.9523002,19.8890488 C43.4707163,19.5684319 43.8663605,19.0691961 43.9919706,18.4518574 C44.039761,18.2193598 43.8574341,18 43.6202673,18 L37.9961963,18 C34.6826361,18 31.9962106,20.6863797 31.9962106,23.9999857 C28.9999714,23.9999857 27.1118381,22.2759145 26.012155,19.7686115 C25.8612307,19.4240536 25.3742171,19.4048276 25.2134051,19.7451741 C24.7573362,20.7103207 24.4999821,21.7874818 24.4999821,22.9265324 C24.4999821,26.0690268 26.8910592,29.1651498 30.4999678,29.8518394 L30.4999678,30.0004292 C26.6145248,30.0004292 23.7813864,27.3042076 23.1391913,24.2414097 C22.355456,24.4978025 21.6570018,24.9435717 21.1249902,25.5524875 L21.1249902,25.4999821 C18.850139,25.4999821 17,27.3501211 17,29.6249723 L17,32.249966 C17,32.6643327 17.3356315,32.9999642 17.7499982,32.9999642 L18.5,32.9999642 C18.9143631,32.9999642 19.2499946,32.6643327 19.2499946,32.249966 L19.2499946,29.6249723 C19.2499946,29.0052991 19.5720306,28.4817102 20.0365681,28.1399905 C20.0267262,28.2609313 20,28.3766995 20,28.499975 C20,29.7955804 20.5549842,30.9543606 21.4315538,31.7755867 L20.2259445,34.9912315 C20.1205217,35.2722519 20.0349659,35.7438847 20.0349659,36.0440396 C20.0349659,36.2480186 20.0751575,36.5741287 20.1246874,36.7719737 L21.28951,41.4318136 C21.3597949,41.7140655 21.6306388,41.9484486 21.9197033,41.9925027 L22.0165286,41.9999428 L25.1084401,41.9999428 Z M40.9961891,22.4999928 C40.5818224,22.4999928 40.2461909,22.1643577 40.2461909,21.7499911 C40.2461909,21.3356244 40.5818224,20.9999928 40.9961891,20.9999928 C41.4105558,20.9999928 41.7461909,21.3356244 41.7461909,21.7499911 C41.7461909,22.1643577 41.4105558,22.4999928 40.9961891,22.4999928 Z" id="p" fill="#9F9A95" fill-rule="nonzero"></path>
            </g>
        </g>
    </g>
</svg>